<mxfile host="65bd71144e">
    <diagram id="4HkE0o8pb832HCWqnBie" name="Page-1">
        <mxGraphModel dx="1780" dy="1203" grid="1" gridSize="24" guides="1" tooltips="1" connect="1" arrows="1" fold="1" page="1" pageScale="1" pageWidth="850" pageHeight="1100" background="#ffffff" math="0" shadow="0">
            <root>
                <mxCell id="0"/>
                <mxCell id="1" parent="0"/>
                <mxCell id="38" style="edgeStyle=none;sketch=1;hachureGap=4;jiggle=2;curveFitting=1;jumpSize=8;html=1;exitX=0.25;exitY=1;exitDx=0;exitDy=0;entryX=0.6;entryY=-0.034;entryDx=0;entryDy=0;entryPerimeter=0;shadow=1;strokeColor=#000000;fontFamily=Architects Daughter;fontSource=https%3A%2F%2Ffonts.googleapis.com%2Fcss%3Ffamily%3DArchitects%2BDaughter;fontSize=15;fontColor=none;fillColor=#000000;" parent="1" source="2" target="10" edge="1">
                    <mxGeometry relative="1" as="geometry"/>
                </mxCell>
                <mxCell id="2" value="&lt;font color=&quot;#000000&quot;&gt;&lt;b&gt;Slack Channel&amp;nbsp;&lt;/b&gt;&lt;/font&gt;" style="rounded=0;whiteSpace=wrap;html=1;sketch=1;hachureGap=4;jiggle=2;curveFitting=1;fontFamily=Architects Daughter;fontSource=https%3A%2F%2Ffonts.googleapis.com%2Fcss%3Ffamily%3DArchitects%2BDaughter;fontSize=20;fillColor=#60a917;fontColor=#ffffff;strokeColor=#2D7600;" parent="1" vertex="1">
                    <mxGeometry x="256" y="24" width="240" height="60" as="geometry"/>
                </mxCell>
                <mxCell id="5" style="edgeStyle=none;sketch=1;hachureGap=4;jiggle=2;curveFitting=1;html=1;exitX=1;exitY=0.5;exitDx=0;exitDy=0;fontFamily=Architects Daughter;fontSource=https%3A%2F%2Ffonts.googleapis.com%2Fcss%3Ffamily%3DArchitects%2BDaughter;fontSize=16;fontColor=#000000;" parent="1" source="3" edge="1">
                    <mxGeometry relative="1" as="geometry">
                        <mxPoint x="508" y="246" as="targetPoint"/>
                    </mxGeometry>
                </mxCell>
                <mxCell id="3" value="&lt;font color=&quot;#000000&quot;&gt;&lt;b&gt;Spring Java Repo&lt;/b&gt;&lt;/font&gt;" style="rounded=0;whiteSpace=wrap;html=1;sketch=1;hachureGap=4;jiggle=2;curveFitting=1;fontFamily=Architects Daughter;fontSource=https%3A%2F%2Ffonts.googleapis.com%2Fcss%3Ffamily%3DArchitects%2BDaughter;fontSize=20;fillColor=#60a917;fontColor=#ffffff;strokeColor=#2D7600;" parent="1" vertex="1">
                    <mxGeometry x="256" y="240" width="240" height="72" as="geometry"/>
                </mxCell>
                <mxCell id="43" style="edgeStyle=none;sketch=1;hachureGap=4;jiggle=2;curveFitting=1;jumpSize=8;html=1;exitX=0.25;exitY=1;exitDx=0;exitDy=0;entryX=0.523;entryY=0.113;entryDx=0;entryDy=0;entryPerimeter=0;shadow=1;strokeColor=#33001A;fontFamily=Architects Daughter;fontSource=https%3A%2F%2Ffonts.googleapis.com%2Fcss%3Ffamily%3DArchitects%2BDaughter;fontSize=15;fontColor=none;fillColor=#000000;" parent="1" source="4" target="42" edge="1">
                    <mxGeometry relative="1" as="geometry"/>
                </mxCell>
                <mxCell id="45" style="edgeStyle=none;sketch=1;hachureGap=4;jiggle=2;curveFitting=1;jumpSize=8;html=1;exitX=1;exitY=0.5;exitDx=0;exitDy=0;entryX=0.625;entryY=0.2;entryDx=0;entryDy=0;entryPerimeter=0;shadow=1;strokeColor=#33001A;fontFamily=Architects Daughter;fontSource=https%3A%2F%2Ffonts.googleapis.com%2Fcss%3Ffamily%3DArchitects%2BDaughter;fontSize=15;fontColor=none;fillColor=#000000;" parent="1" source="4" target="41" edge="1">
                    <mxGeometry relative="1" as="geometry"/>
                </mxCell>
                <mxCell id="4" value="&lt;font color=&quot;#000000&quot;&gt;Frontend Repo&lt;/font&gt;" style="rounded=0;whiteSpace=wrap;html=1;sketch=1;hachureGap=4;jiggle=2;curveFitting=1;fontFamily=Architects Daughter;fontSource=https%3A%2F%2Ffonts.googleapis.com%2Fcss%3Ffamily%3DArchitects%2BDaughter;fontSize=20;fillColor=#60a917;fontColor=#ffffff;strokeColor=#2D7600;fontStyle=1" parent="1" vertex="1">
                    <mxGeometry x="256" y="624" width="228" height="72" as="geometry"/>
                </mxCell>
                <mxCell id="6" value="&lt;font color=&quot;#000000&quot;&gt;&lt;b&gt;Mort's Website&lt;/b&gt;&lt;/font&gt;" style="rounded=0;whiteSpace=wrap;html=1;sketch=1;hachureGap=4;jiggle=2;curveFitting=1;fontFamily=Architects Daughter;fontSource=https%3A%2F%2Ffonts.googleapis.com%2Fcss%3Ffamily%3DArchitects%2BDaughter;fontSize=20;fillColor=#60a917;fontColor=#ffffff;strokeColor=#2D7600;" parent="1" vertex="1">
                    <mxGeometry x="256" y="888" width="228" height="72" as="geometry"/>
                </mxCell>
                <mxCell id="39" style="edgeStyle=none;sketch=1;hachureGap=4;jiggle=2;curveFitting=1;jumpSize=8;html=1;exitX=0.5;exitY=1;exitDx=0;exitDy=0;entryX=0.345;entryY=-0.034;entryDx=0;entryDy=0;entryPerimeter=0;shadow=1;strokeColor=#000000;fontFamily=Architects Daughter;fontSource=https%3A%2F%2Ffonts.googleapis.com%2Fcss%3Ffamily%3DArchitects%2BDaughter;fontSize=15;fontColor=none;fillColor=#000000;" parent="1" source="10" target="3" edge="1">
                    <mxGeometry relative="1" as="geometry"/>
                </mxCell>
                <mxCell id="10" value="&lt;font style=&quot;font-size: 15px;&quot;&gt;&lt;b&gt;Slack Transposer (our slack app)&lt;/b&gt;&lt;/font&gt;" style="shape=process;whiteSpace=wrap;html=1;backgroundOutline=1;labelBackgroundColor=none;labelBorderColor=none;sketch=1;hachureGap=4;jiggle=2;curveFitting=1;fontFamily=Architects Daughter;fontSource=https%3A%2F%2Ffonts.googleapis.com%2Fcss%3Ffamily%3DArchitects%2BDaughter;fontSize=20;fontColor=none;fillColor=#FF66B3;strokeColor=#000000;" parent="1" vertex="1">
                    <mxGeometry x="96" y="120" width="200" height="72" as="geometry"/>
                </mxCell>
                <mxCell id="15" style="edgeStyle=none;sketch=1;hachureGap=4;jiggle=2;curveFitting=1;html=1;exitX=1;exitY=0;exitDx=0;exitDy=0;fontFamily=Architects Daughter;fontSource=https%3A%2F%2Ffonts.googleapis.com%2Fcss%3Ffamily%3DArchitects%2BDaughter;fontSize=15;fontColor=none;" parent="1" source="11" edge="1">
                    <mxGeometry relative="1" as="geometry">
                        <mxPoint x="720" y="96" as="targetPoint"/>
                    </mxGeometry>
                </mxCell>
                <mxCell id="11" value="Prereq" style="swimlane;fontStyle=1;childLayout=stackLayout;horizontal=1;startSize=30;horizontalStack=0;resizeParent=1;resizeParentMax=0;resizeLast=0;collapsible=1;marginBottom=0;whiteSpace=wrap;html=1;labelBackgroundColor=none;labelBorderColor=none;sketch=1;hachureGap=4;jiggle=2;curveFitting=1;strokeColor=#000000;fontFamily=Architects Daughter;fontSource=https%3A%2F%2Ffonts.googleapis.com%2Fcss%3Ffamily%3DArchitects%2BDaughter;fontSize=15;fontColor=none;fillColor=#FF66B3;" parent="1" vertex="1">
                    <mxGeometry x="532" y="144" width="168" height="120" as="geometry"/>
                </mxCell>
                <mxCell id="12" value="- Message template" style="text;strokeColor=none;fillColor=none;align=left;verticalAlign=middle;spacingLeft=4;spacingRight=4;overflow=hidden;points=[[0,0.5],[1,0.5]];portConstraint=eastwest;rotatable=0;whiteSpace=wrap;html=1;fontSize=16;labelBackgroundColor=none;labelBorderColor=none;sketch=1;hachureGap=4;jiggle=2;curveFitting=1;fontFamily=Architects Daughter;fontSource=https%3A%2F%2Ffonts.googleapis.com%2Fcss%3Ffamily%3DArchitects%2BDaughter;fontColor=none;fontStyle=1" parent="11" vertex="1">
                    <mxGeometry y="30" width="168" height="30" as="geometry"/>
                </mxCell>
                <mxCell id="13" value="- App added" style="text;strokeColor=none;fillColor=none;align=left;verticalAlign=middle;spacingLeft=4;spacingRight=4;overflow=hidden;points=[[0,0.5],[1,0.5]];portConstraint=eastwest;rotatable=0;whiteSpace=wrap;html=1;fontSize=16;labelBackgroundColor=none;labelBorderColor=none;sketch=1;hachureGap=4;jiggle=2;curveFitting=1;fontFamily=Architects Daughter;fontSource=https%3A%2F%2Ffonts.googleapis.com%2Fcss%3Ffamily%3DArchitects%2BDaughter;fontColor=none;fontStyle=1" parent="11" vertex="1">
                    <mxGeometry y="60" width="168" height="30" as="geometry"/>
                </mxCell>
                <mxCell id="14" value="- Permissions" style="text;strokeColor=none;fillColor=none;align=left;verticalAlign=middle;spacingLeft=4;spacingRight=4;overflow=hidden;points=[[0,0.5],[1,0.5]];portConstraint=eastwest;rotatable=0;whiteSpace=wrap;html=1;fontSize=16;labelBackgroundColor=none;labelBorderColor=none;sketch=1;hachureGap=4;jiggle=2;curveFitting=1;fontFamily=Architects Daughter;fontSource=https%3A%2F%2Ffonts.googleapis.com%2Fcss%3Ffamily%3DArchitects%2BDaughter;fontColor=none;fontStyle=1" parent="11" vertex="1">
                    <mxGeometry y="90" width="168" height="30" as="geometry"/>
                </mxCell>
                <mxCell id="16" value="&lt;span style=&quot;font-size: 15px;&quot;&gt;&lt;b&gt;Call Slack App + Get Messages&amp;nbsp;&lt;/b&gt;&lt;/span&gt;" style="shape=process;whiteSpace=wrap;html=1;backgroundOutline=1;labelBackgroundColor=none;labelBorderColor=none;sketch=1;hachureGap=4;jiggle=2;curveFitting=1;fontFamily=Architects Daughter;fontSource=https%3A%2F%2Ffonts.googleapis.com%2Fcss%3Ffamily%3DArchitects%2BDaughter;fontSize=20;fontColor=none;fillColor=#FF66B3;strokeColor=#000000;" parent="1" vertex="1">
                    <mxGeometry x="416" y="336" width="200" height="72" as="geometry"/>
                </mxCell>
                <mxCell id="23" value="" style="edgeStyle=none;sketch=1;hachureGap=4;jiggle=2;curveFitting=1;html=1;strokeColor=#000000;fontFamily=Architects Daughter;fontSource=https%3A%2F%2Ffonts.googleapis.com%2Fcss%3Ffamily%3DArchitects%2BDaughter;fontSize=15;fontColor=none;fillColor=#000000;entryX=0.561;entryY=0;entryDx=0;entryDy=0;entryPerimeter=0;fontStyle=1" parent="1" source="18" target="4" edge="1">
                    <mxGeometry relative="1" as="geometry">
                        <mxPoint x="648" y="600" as="targetPoint"/>
                    </mxGeometry>
                </mxCell>
                <mxCell id="18" value="&lt;b&gt;Message DB w/ Blob fields for messages&lt;/b&gt;" style="shape=cylinder3;whiteSpace=wrap;html=1;boundedLbl=1;backgroundOutline=1;size=15;labelBackgroundColor=none;labelBorderColor=none;sketch=1;hachureGap=4;jiggle=2;curveFitting=1;strokeColor=#000000;fontFamily=Architects Daughter;fontSource=https%3A%2F%2Ffonts.googleapis.com%2Fcss%3Ffamily%3DArchitects%2BDaughter;fontSize=15;fontColor=none;fillColor=#FF66B3;" parent="1" vertex="1">
                    <mxGeometry x="658" y="456" width="168" height="120" as="geometry"/>
                </mxCell>
                <mxCell id="19" value="" style="endArrow=classic;html=1;sketch=1;hachureGap=4;jiggle=2;curveFitting=1;fontFamily=Architects Daughter;fontSource=https%3A%2F%2Ffonts.googleapis.com%2Fcss%3Ffamily%3DArchitects%2BDaughter;fontSize=15;fontColor=none;exitX=1;exitY=0.5;exitDx=0;exitDy=0;entryX=0.5;entryY=0;entryDx=0;entryDy=0;entryPerimeter=0;fillColor=#000000;strokeColor=#000000;fontStyle=1" parent="1" source="16" target="18" edge="1">
                    <mxGeometry width="50" height="50" relative="1" as="geometry">
                        <mxPoint x="576" y="506" as="sourcePoint"/>
                        <mxPoint x="626" y="456" as="targetPoint"/>
                        <Array as="points">
                            <mxPoint x="684" y="336"/>
                        </Array>
                    </mxGeometry>
                </mxCell>
                <mxCell id="20" value="&lt;b&gt;Message Template -&amp;gt; DB fields (fill headers + message)&lt;/b&gt;" style="text;html=1;strokeColor=none;fillColor=none;align=center;verticalAlign=middle;whiteSpace=wrap;rounded=0;labelBackgroundColor=none;labelBorderColor=none;sketch=1;hachureGap=4;jiggle=2;curveFitting=1;fontFamily=Architects Daughter;fontSource=https%3A%2F%2Ffonts.googleapis.com%2Fcss%3Ffamily%3DArchitects%2BDaughter;fontSize=15;fontColor=none;" parent="1" vertex="1">
                    <mxGeometry x="658" y="288" width="192" height="72" as="geometry"/>
                </mxCell>
                <mxCell id="21" value="&lt;b&gt;CRUD?&lt;/b&gt;" style="ellipse;shape=cloud;whiteSpace=wrap;html=1;labelBackgroundColor=none;labelBorderColor=none;sketch=1;hachureGap=4;jiggle=2;curveFitting=1;strokeColor=#000000;fontFamily=Architects Daughter;fontSource=https%3A%2F%2Ffonts.googleapis.com%2Fcss%3Ffamily%3DArchitects%2BDaughter;fontSize=15;fontColor=none;fillColor=#FFFF00;" parent="1" vertex="1">
                    <mxGeometry x="532" y="456" width="120" height="80" as="geometry"/>
                </mxCell>
                <mxCell id="25" value="&lt;b&gt;Convert to JSON + send&lt;/b&gt;" style="text;html=1;strokeColor=none;fillColor=none;align=center;verticalAlign=middle;whiteSpace=wrap;rounded=0;labelBackgroundColor=none;labelBorderColor=none;sketch=1;hachureGap=4;jiggle=2;curveFitting=1;fontFamily=Architects Daughter;fontSource=https%3A%2F%2Ffonts.googleapis.com%2Fcss%3Ffamily%3DArchitects%2BDaughter;fontSize=15;fontColor=none;" parent="1" vertex="1">
                    <mxGeometry x="504" y="576" width="192" height="72" as="geometry"/>
                </mxCell>
                <mxCell id="26" value="&lt;span style=&quot;font-size: 15px;&quot;&gt;&lt;b&gt;API for calendar format/reminders&lt;/b&gt;&lt;/span&gt;" style="shape=process;whiteSpace=wrap;html=1;backgroundOutline=1;labelBackgroundColor=none;labelBorderColor=none;sketch=1;hachureGap=4;jiggle=2;curveFitting=1;fontFamily=Architects Daughter;fontSource=https%3A%2F%2Ffonts.googleapis.com%2Fcss%3Ffamily%3DArchitects%2BDaughter;fontSize=20;fontColor=none;fillColor=#FFFF00;strokeColor=#000000;" parent="1" vertex="1">
                    <mxGeometry x="120" y="336" width="200" height="72" as="geometry"/>
                </mxCell>
                <mxCell id="27" value="" style="endArrow=classic;startArrow=classic;html=1;sketch=1;hachureGap=4;jiggle=2;curveFitting=1;strokeColor=#33001A;fontFamily=Architects Daughter;fontSource=https%3A%2F%2Ffonts.googleapis.com%2Fcss%3Ffamily%3DArchitects%2BDaughter;fontSize=15;fontColor=none;fillColor=#000000;entryX=0.5;entryY=1;entryDx=0;entryDy=0;exitX=0.351;exitY=0;exitDx=0;exitDy=0;exitPerimeter=0;fontStyle=1;jumpSize=8;shadow=1;" parent="1" source="4" target="26" edge="1">
                    <mxGeometry width="50" height="50" relative="1" as="geometry">
                        <mxPoint x="226" y="600" as="sourcePoint"/>
                        <mxPoint x="276" y="550" as="targetPoint"/>
                    </mxGeometry>
                </mxCell>
                <mxCell id="29" value="&lt;b&gt;Convert to JSON + send&lt;/b&gt;" style="text;html=1;strokeColor=none;fillColor=none;align=center;verticalAlign=middle;whiteSpace=wrap;rounded=0;labelBackgroundColor=none;labelBorderColor=none;sketch=1;hachureGap=4;jiggle=2;curveFitting=1;fontFamily=Architects Daughter;fontSource=https%3A%2F%2Ffonts.googleapis.com%2Fcss%3Ffamily%3DArchitects%2BDaughter;fontSize=15;fontColor=#33001A;" parent="1" vertex="1">
                    <mxGeometry x="64" y="460" width="192" height="72" as="geometry"/>
                </mxCell>
                <mxCell id="31" value="&lt;b&gt;Pull Request? (Just basic concepts + project for next year)&lt;/b&gt;" style="text;html=1;strokeColor=none;fillColor=none;align=center;verticalAlign=middle;whiteSpace=wrap;rounded=0;labelBackgroundColor=none;labelBorderColor=none;sketch=1;hachureGap=4;jiggle=2;curveFitting=1;fontFamily=Architects Daughter;fontSource=https%3A%2F%2Ffonts.googleapis.com%2Fcss%3Ffamily%3DArchitects%2BDaughter;fontSize=15;fontColor=none;" parent="1" vertex="1">
                    <mxGeometry x="384" y="816" width="192" height="72" as="geometry"/>
                </mxCell>
                <mxCell id="32" value="" style="shape=flexArrow;endArrow=classic;html=1;shadow=1;sketch=1;hachureGap=4;jiggle=2;curveFitting=1;strokeColor=#000000;fontFamily=Architects Daughter;fontSource=https%3A%2F%2Ffonts.googleapis.com%2Fcss%3Ffamily%3DArchitects%2BDaughter;fontSize=15;fontColor=none;fillColor=#000000;jumpSize=8;exitX=0.5;exitY=1;exitDx=0;exitDy=0;entryX=0.5;entryY=0;entryDx=0;entryDy=0;" parent="1" source="4" target="6" edge="1">
                    <mxGeometry width="50" height="50" relative="1" as="geometry">
                        <mxPoint x="480" y="698" as="sourcePoint"/>
                        <mxPoint x="530" y="648" as="targetPoint"/>
                    </mxGeometry>
                </mxCell>
                <mxCell id="33" value="" style="shape=flexArrow;endArrow=classic;html=1;shadow=1;sketch=1;hachureGap=4;jiggle=2;curveFitting=1;strokeColor=#000000;fontFamily=Architects Daughter;fontSource=https%3A%2F%2Ffonts.googleapis.com%2Fcss%3Ffamily%3DArchitects%2BDaughter;fontSize=15;fontColor=none;fillColor=#000000;jumpSize=8;exitX=0.5;exitY=1;exitDx=0;exitDy=0;entryX=0.5;entryY=0;entryDx=0;entryDy=0;" parent="1" source="3" edge="1">
                    <mxGeometry width="50" height="50" relative="1" as="geometry">
                        <mxPoint x="375.29" y="408" as="sourcePoint"/>
                        <mxPoint x="375.29" y="624" as="targetPoint"/>
                    </mxGeometry>
                </mxCell>
                <mxCell id="37" value="" style="shape=flexArrow;endArrow=classic;html=1;shadow=1;sketch=1;hachureGap=4;jiggle=2;curveFitting=1;strokeColor=#000000;fontFamily=Architects Daughter;fontSource=https%3A%2F%2Ffonts.googleapis.com%2Fcss%3Ffamily%3DArchitects%2BDaughter;fontSize=15;fontColor=none;fillColor=#000000;jumpSize=8;entryX=0.5;entryY=0;entryDx=0;entryDy=0;" parent="1" edge="1">
                    <mxGeometry width="50" height="50" relative="1" as="geometry">
                        <mxPoint x="375.29" y="96" as="sourcePoint"/>
                        <mxPoint x="375.58" y="240" as="targetPoint"/>
                    </mxGeometry>
                </mxCell>
                <mxCell id="47" style="edgeStyle=none;sketch=1;hachureGap=4;jiggle=2;curveFitting=1;jumpSize=8;html=1;exitX=0.55;exitY=0.95;exitDx=0;exitDy=0;exitPerimeter=0;entryX=1;entryY=0.5;entryDx=0;entryDy=0;shadow=1;strokeColor=#33001A;fontFamily=Architects Daughter;fontSource=https%3A%2F%2Ffonts.googleapis.com%2Fcss%3Ffamily%3DArchitects%2BDaughter;fontSize=15;fontColor=none;fillColor=#000000;" parent="1" source="41" target="6" edge="1">
                    <mxGeometry relative="1" as="geometry"/>
                </mxCell>
                <mxCell id="41" value="&lt;b&gt;Google Calendar&lt;/b&gt;" style="ellipse;shape=cloud;whiteSpace=wrap;html=1;labelBackgroundColor=none;labelBorderColor=none;sketch=1;hachureGap=4;jiggle=2;curveFitting=1;strokeColor=#000000;fontFamily=Architects Daughter;fontSource=https%3A%2F%2Ffonts.googleapis.com%2Fcss%3Ffamily%3DArchitects%2BDaughter;fontSize=15;fontColor=none;fillColor=#FFFF00;" parent="1" vertex="1">
                    <mxGeometry x="552" y="720" width="240" height="96" as="geometry"/>
                </mxCell>
                <mxCell id="44" style="edgeStyle=none;sketch=1;hachureGap=4;jiggle=2;curveFitting=1;jumpSize=8;html=1;exitX=0.55;exitY=0.95;exitDx=0;exitDy=0;exitPerimeter=0;shadow=1;strokeColor=#33001A;fontFamily=Architects Daughter;fontSource=https%3A%2F%2Ffonts.googleapis.com%2Fcss%3Ffamily%3DArchitects%2BDaughter;fontSize=15;fontColor=none;fillColor=#000000;" parent="1" source="42" target="6" edge="1">
                    <mxGeometry relative="1" as="geometry"/>
                </mxCell>
                <mxCell id="42" value="&lt;b&gt;Dynamically Updated Calendar&lt;/b&gt;" style="ellipse;shape=cloud;whiteSpace=wrap;html=1;labelBackgroundColor=none;labelBorderColor=none;sketch=1;hachureGap=4;jiggle=2;curveFitting=1;strokeColor=#000000;fontFamily=Architects Daughter;fontSource=https%3A%2F%2Ffonts.googleapis.com%2Fcss%3Ffamily%3DArchitects%2BDaughter;fontSize=15;fontColor=none;fillColor=#FFFF00;" parent="1" vertex="1">
                    <mxGeometry x="40" y="744" width="320" height="120" as="geometry"/>
                </mxCell>
                <mxCell id="50" value="Key" style="swimlane;fontStyle=0;childLayout=stackLayout;horizontal=1;startSize=30;horizontalStack=0;resizeParent=1;resizeParentMax=0;resizeLast=0;collapsible=1;marginBottom=0;whiteSpace=wrap;html=1;labelBackgroundColor=none;labelBorderColor=none;sketch=1;hachureGap=4;jiggle=2;curveFitting=1;strokeColor=#33001A;fontFamily=Architects Daughter;fontSource=https%3A%2F%2Ffonts.googleapis.com%2Fcss%3Ffamily%3DArchitects%2BDaughter;fontSize=15;fontColor=#33001A;fillColor=#FFFF00;" parent="1" vertex="1">
                    <mxGeometry x="652" y="912" width="140" height="120" as="geometry"/>
                </mxCell>
                <mxCell id="51" value="Yellow Color +" style="text;strokeColor=none;fillColor=#FFFF00;align=left;verticalAlign=middle;spacingLeft=4;spacingRight=4;overflow=hidden;points=[[0,0.5],[1,0.5]];portConstraint=eastwest;rotatable=0;whiteSpace=wrap;html=1;fontSize=16;labelBackgroundColor=none;labelBorderColor=none;sketch=1;hachureGap=4;jiggle=2;curveFitting=1;fontFamily=Architects Daughter;fontSource=https%3A%2F%2Ffonts.googleapis.com%2Fcss%3Ffamily%3DArchitects%2BDaughter;fontColor=#33001A;" parent="50" vertex="1">
                    <mxGeometry y="30" width="140" height="30" as="geometry"/>
                </mxCell>
                <mxCell id="52" value="Red Arrow" style="text;strokeColor=none;fillColor=#FFFF00;align=left;verticalAlign=middle;spacingLeft=4;spacingRight=4;overflow=hidden;points=[[0,0.5],[1,0.5]];portConstraint=eastwest;rotatable=0;whiteSpace=wrap;html=1;fontSize=16;labelBackgroundColor=none;labelBorderColor=none;sketch=1;hachureGap=4;jiggle=2;curveFitting=1;fontFamily=Architects Daughter;fontSource=https%3A%2F%2Ffonts.googleapis.com%2Fcss%3Ffamily%3DArchitects%2BDaughter;fontColor=#33001A;" parent="50" vertex="1">
                    <mxGeometry y="60" width="140" height="30" as="geometry"/>
                </mxCell>
                <mxCell id="53" value="= Future Idea" style="text;strokeColor=none;fillColor=#FFFF00;align=left;verticalAlign=middle;spacingLeft=4;spacingRight=4;overflow=hidden;points=[[0,0.5],[1,0.5]];portConstraint=eastwest;rotatable=0;whiteSpace=wrap;html=1;fontSize=16;labelBackgroundColor=none;labelBorderColor=none;sketch=1;hachureGap=4;jiggle=2;curveFitting=1;fontFamily=Architects Daughter;fontSource=https%3A%2F%2Ffonts.googleapis.com%2Fcss%3Ffamily%3DArchitects%2BDaughter;fontColor=#33001A;" parent="50" vertex="1">
                    <mxGeometry y="90" width="140" height="30" as="geometry"/>
                </mxCell>
                <mxCell id="54" value="Vibha" style="shape=umlActor;verticalLabelPosition=bottom;verticalAlign=top;html=1;outlineConnect=0;labelBackgroundColor=none;labelBorderColor=none;sketch=1;hachureGap=4;jiggle=2;curveFitting=1;strokeColor=#33001A;fontFamily=Architects Daughter;fontSource=https%3A%2F%2Ffonts.googleapis.com%2Fcss%3Ffamily%3DArchitects%2BDaughter;fontSize=15;fontColor=#33001A;fillColor=#6600CC;fontStyle=1" parent="1" vertex="1">
                    <mxGeometry x="34" y="1008" width="30" height="60" as="geometry"/>
                </mxCell>
                <mxCell id="60" value="Avanthika" style="shape=umlActor;verticalLabelPosition=bottom;verticalAlign=top;html=1;outlineConnect=0;labelBackgroundColor=none;labelBorderColor=none;sketch=1;hachureGap=4;jiggle=2;curveFitting=1;strokeColor=#33001A;fontFamily=Architects Daughter;fontSource=https%3A%2F%2Ffonts.googleapis.com%2Fcss%3Ffamily%3DArchitects%2BDaughter;fontSize=15;fontColor=#33001A;fillColor=#6600CC;fontStyle=1" parent="1" vertex="1">
                    <mxGeometry x="96" y="1008" width="30" height="60" as="geometry"/>
                </mxCell>
                <mxCell id="61" value="Anusha" style="shape=umlActor;verticalLabelPosition=bottom;verticalAlign=top;html=1;outlineConnect=0;labelBackgroundColor=none;labelBorderColor=none;sketch=1;hachureGap=4;jiggle=2;curveFitting=1;strokeColor=#33001A;fontFamily=Architects Daughter;fontSource=https%3A%2F%2Ffonts.googleapis.com%2Fcss%3Ffamily%3DArchitects%2BDaughter;fontSize=15;fontColor=#33001A;fillColor=#6600CC;fontStyle=1" parent="1" vertex="1">
                    <mxGeometry x="168" y="1008" width="30" height="60" as="geometry"/>
                </mxCell>
                <mxCell id="62" value="Matthew" style="shape=umlActor;verticalLabelPosition=bottom;verticalAlign=top;html=1;outlineConnect=0;labelBackgroundColor=none;labelBorderColor=none;sketch=1;hachureGap=4;jiggle=2;curveFitting=1;strokeColor=#33001A;fontFamily=Architects Daughter;fontSource=https%3A%2F%2Ffonts.googleapis.com%2Fcss%3Ffamily%3DArchitects%2BDaughter;fontSize=15;fontColor=#33001A;fillColor=#4C0099;fontStyle=1" parent="1" vertex="1">
                    <mxGeometry x="240" y="1008" width="30" height="60" as="geometry"/>
                </mxCell>
                <mxCell id="65" value="&lt;b&gt;&lt;font style=&quot;font-size: 22px;&quot;&gt;Our Team&lt;/font&gt;&lt;/b&gt;" style="text;html=1;strokeColor=none;fillColor=#9933FF;align=center;verticalAlign=middle;whiteSpace=wrap;rounded=0;labelBackgroundColor=none;labelBorderColor=none;sketch=1;hachureGap=4;jiggle=2;curveFitting=1;fontFamily=Architects Daughter;fontSource=https%3A%2F%2Ffonts.googleapis.com%2Fcss%3Ffamily%3DArchitects%2BDaughter;fontSize=15;fontColor=#33001A;" parent="1" vertex="1">
                    <mxGeometry x="96" y="933" width="120" height="51" as="geometry"/>
                </mxCell>
                <mxCell id="69" style="edgeStyle=none;sketch=1;hachureGap=4;jiggle=2;curveFitting=1;jumpSize=8;html=1;exitX=0;exitY=0.5;exitDx=0;exitDy=0;shadow=1;strokeColor=#33001A;fontFamily=Architects Daughter;fontSource=https%3A%2F%2Ffonts.googleapis.com%2Fcss%3Ffamily%3DArchitects%2BDaughter;fontSize=15;fontColor=#33001A;fillColor=#000000;entryX=1;entryY=0.3333333333333333;entryDx=0;entryDy=0;entryPerimeter=0;" parent="1" source="67" target="62" edge="1">
                    <mxGeometry relative="1" as="geometry">
                        <mxPoint x="288" y="1056.0000000000002" as="targetPoint"/>
                    </mxGeometry>
                </mxCell>
                <mxCell id="67" value="Scrum Master" style="text;html=1;strokeColor=none;fillColor=none;align=center;verticalAlign=middle;whiteSpace=wrap;rounded=0;labelBackgroundColor=none;labelBorderColor=none;sketch=1;hachureGap=4;jiggle=2;curveFitting=1;fontFamily=Architects Daughter;fontSource=https%3A%2F%2Ffonts.googleapis.com%2Fcss%3Ffamily%3DArchitects%2BDaughter;fontSize=15;fontColor=#33001A;fontStyle=1" parent="1" vertex="1">
                    <mxGeometry x="300" y="1002" width="60" height="30" as="geometry"/>
                </mxCell>
                <mxCell id="70" value="&lt;font style=&quot;font-size: 40px;&quot;&gt;Slack Message&lt;br&gt;&amp;nbsp;Transposer&lt;/font&gt;" style="text;strokeColor=none;fillColor=none;html=1;fontSize=24;fontStyle=1;verticalAlign=middle;align=center;labelBackgroundColor=none;labelBorderColor=none;sketch=1;hachureGap=4;jiggle=2;curveFitting=1;fontFamily=Architects Daughter;fontSource=https%3A%2F%2Ffonts.googleapis.com%2Fcss%3Ffamily%3DArchitects%2BDaughter;fontColor=#33001A;" parent="1" vertex="1">
                    <mxGeometry x="600" y="44" width="100" height="40" as="geometry"/>
                </mxCell>
            </root>
        </mxGraphModel>
    </diagram>
</mxfile>